:FULLY-SPECIFIED
:FORCE-ALL-JOINTS-BE-3DOF
:DEGREES
162
root 8.29293 16.6217 -14.2329 7.48904 9.42061 -0.694199
lfemur -5.72612 8.08191 -14.8946
ltibia 55.1326 0 0
lfoot 1.50183 12.6012 0
ltoes -13.0355 0 0
rfemur -28.7677 1.63703 23.1028
rtibia 29.9732 0 0
rfoot -13.4835 0.106782 0
rtoes -15.2252 0 0
lowerback -4.70914 -1.8285 -0.559753
upperback -1.65616 -2.43653 3.4273
thorax 1.11032 -1.21734 3.69425
lowerneck -18.7468 -7.14977 -14.5188
upperneck 14.8809 -8.69378 14.5191
head 9.07699 -3.52842 6.21396
lclavicle -2.80846e-14 2.17648e-14 0
lhumerus -44.6322 -13.4304 97.2021
lradius 27.265 0 0
lwrist 4.49879 0 0
lhand -0.929911 -18.7255 0
lfingers 7.12502 0 0
lthumb 24.6991 9.69805 0
rclavicle -2.80846e-14 2.17648e-14 0
rhumerus -45.5532 9.43993 -81.6992
rradius 34.3059 0 0
rwrist -18.7193 0 0
rhand -28.2248 -26.4206 0
rfingers 7.12502 0 0
rthumb -1.60306 -56.3958 0
163
root 8.2685 16.6376 -14.0803 7.52097 9.37909 -0.835617
lfemur -6.5135 8.13463 -14.6893
ltibia 55.7958 0 0
lfoot 1.62692 12.8139 0
ltoes -13.1766 0 0
rfemur -28.2165 1.49277 23.4958
rtibia 29.9128 0 0
rfoot -13.3371 0.373149 0
rtoes -15.0469 0 0
lowerback -4.65652 -1.75557 -0.431595
upperback -1.6552 -2.35068 3.45005
thorax 1.0709 -1.17252 3.65595
lowerneck -18.7152 -7.17297 -14.5371
upperneck 14.7726 -8.73008 14.5827
head 9.04253 -3.5409 6.232
lclavicle -2.72128e-14 2.22991e-14 0
lhumerus -44.9295 -13.1681 97.1908
lradius 27.0246 0 0
lwrist 4.42954 0 0
lhand -0.866171 -18.6806 0
lfingers 7.12502 0 0
lthumb 24.7604 9.73635 0
rclavicle -2.72128e-14 2.22991e-14 0
rhumerus -45.429 9.50721 -81.6805
rradius 34.4976 0 0
rwrist -18.8126 0 0
rhand -28.2488 -26.4982 0
rfingers 7.12502 0 0
rthumb -1.62622 -56.4728 0
164
root 8.24407 16.6536 -13.9278 7.54988 9.33148 -0.968792
lfemur -7.28039 8.16732 -14.5071
ltibia 56.3182 0 0
lfoot 1.70599 12.9987 0
ltoes -13.3131 0 0
rfemur -27.6672 1.37368 23.8579
rtibia 29.8089 0 0
rfoot -13.2176 0.620662 0
rtoes -14.8791 0 0
lowerback -4.61342 -1.68343 -0.312138
upperback -1.65225 -2.26507 3.47026
thorax 1.03971 -1.12803 3.61942
lowerneck -18.6811 -7.19333 -14.554
upperneck 14.676 -8.76278 14.6405
head 9.01082 -3.55235 6.24856
lclavicle -2.63325e-14 2.27324e-14 0
lhumerus -45.2067 -12.9314 97.1817
lradius 26.8149 0 0
lwrist 4.38011 0 0
lhand -0.831974 -18.6513 0
lfingers 7.12502 0 0
lthumb 24.7932 9.76183 0
rclavicle -2.63325e-14 2.27324e-14 0
rhumerus -45.2991 9.56829 -81.6601
rradius 34.7032 0 0
rwrist -18.9116 0 0
rhand -28.2799 -26.573 0
rfingers 7.12502 0 0
rthumb -1.65628 -56.5468 0
165
root 8.21964 16.6696 -13.7752 7.57564 9.27781 -1.09318
lfemur -8.02459 8.17899 -14.3492
ltibia 56.6923 0 0
lfoot 1.73682 13.1541 0
ltoes -13.4446 0 0
rfemur -27.1207 1.28124 24.1873
rtibia 29.659 0 0
rfoot -13.1264 0.848233 0
rtoes -14.7226 0 0
lowerback -4.58039 -1.61222 -0.201933
upperback -1.64723 -2.17981 3.48779
thorax 1.0172 -1.08396 3.58479
lowerneck -18.6444 -7.21073 -14.5694
upperneck 14.5916 -8.79172 14.6921
head 8.98202 -3.56274 6.26355
lclavicle -2.54444e-14 2.3059e-14 0
lhumerus -45.4629 -12.722 97.1754
lradius 26.6379 0 0
lwrist 4.35162 0 0
lhand -0.828752 -18.6386 0
lfingers 7.12502 0 0
lthumb 24.7963 9.77387 0
rclavicle -2.54444e-14 2.3059e-14 0
rhumerus -45.1634 9.62268 -81.6378
rradius 34.923 0 0
rwrist -19.0166 0 0
rhand -28.3185 -26.6449 0
rfingers 7.12502 0 0
rthumb -1.69352 -56.6179 0
